# xmcd
#
# Track frame offsets: 
#        150
#        19799
#        40574
#        62998
#        81785
#        100429
#        117940
#        134152
#        150568
#        168271
#
# Disc length: 2506 seconds
#
# Revision: 0
# Processed by: cddbd v1.5.2PL0 Copyright (c) Steve Scherf et al.
# Submitted via: ExactAudioCopy v0.99pb3
#
DISCID=7f09c80a
DTITLE=ฝน  ธนสุนทร - เรียกที่รักได้มั้ย
DYEAR=2007
DGENRE=Country
TTITLE0=อายจัง
TTITLE1=เจ็บนี้ให้เธอ
TTITLE2=มาก่อนคือแฟนเก่า
TTITLE3=เรียกที่รักได้มั้ย
TTITLE4=อย่าทำดีมากนัก
TTITLE5=สวยไม่พอชาม งามไม่พอถ้วย
TTITLE6=รอรักมาทักทาย
TTITLE7=ร้องเพลงกันดีกว่า
TTITLE8=ดอกหญ้าลาทุ่ง
TTITLE9=เพลงรักบ้านทุ่ง
EXTD=
EXTT0=
EXTT1=
EXTT2=
EXTT3=
EXTT4=
EXTT5=
EXTT6=
EXTT7=
EXTT8=
EXTT9=
PLAYORDER=
